<svg xmlns="http://www.w3.org/2000/svg" xmlns:xlink="http://www.w3.org/1999/xlink" version="1.1" width="256" height="256" viewBox="0 0 256 256" xml:space="preserve">

<defs>
</defs>
<g style="stroke: none; stroke-width: 0; stroke-dasharray: none; stroke-linecap: butt; stroke-linejoin: miter; stroke-miterlimit: 10; fill: none; fill-rule: nonzero; opacity: 1;" transform="translate(45.02412451361867 45.024124513618645) scale(1.83 1.83)" >
	<path d="M 81.682 32.457 c 6.379 -7.802 5.933 -19.358 -1.342 -26.634 C 76.584 2.068 71.591 0 66.28 0 c -4.639 0 -9.035 1.579 -12.575 4.48 L 81.682 32.457 z" style="stroke: none; stroke-width: 1; stroke-dasharray: none; stroke-linecap: butt; stroke-linejoin: miter; stroke-miterlimit: 10; fill: rgb(255,255,255); fill-rule: nonzero; opacity: 1;" transform=" matrix(1 0 0 1 0 0) " stroke-linecap="round" />
	<path d="M 50.877 7.309 c -2.902 3.541 -4.48 7.936 -4.48 12.575 c 0 5.311 2.068 10.304 5.824 14.06 c 3.755 3.756 8.748 5.824 14.06 5.824 c 4.638 0 9.034 -1.579 12.575 -4.481 L 50.877 7.309 z" style="stroke: none; stroke-width: 1; stroke-dasharray: none; stroke-linecap: butt; stroke-linejoin: miter; stroke-miterlimit: 10; fill: rgb(255,255,255); fill-rule: nonzero; opacity: 1;" transform=" matrix(1 0 0 1 0 0) " stroke-linecap="round" />
	<path d="M 37.826 86 H 10.955 c -1.25 0 -2.306 -0.679 -2.827 -1.814 c -0.52 -1.137 -0.343 -2.38 0.473 -3.326 l 1.761 -2.04 c 1.591 1.007 3.416 1.522 5.247 1.522 c 2.295 0 4.595 -0.798 6.438 -2.409 l 3.939 -3.442 L 11.674 60.177 l -3.442 3.94 C 5.275 67.5 5.058 72.422 7.486 76.031 l -1.913 2.215 c -1.839 2.131 -2.253 5.045 -1.082 7.604 S 8.14 90 10.955 90 h 26.871 c 1.104 0 2 -0.896 2 -2 S 38.931 86 37.826 86 z" style="stroke: none; stroke-width: 1; stroke-dasharray: none; stroke-linecap: butt; stroke-linejoin: miter; stroke-miterlimit: 10; fill: rgb(255,255,255); fill-rule: nonzero; opacity: 1;" transform=" matrix(1 0 0 1 0 0) " stroke-linecap="round" />
	<path d="M 29.006 71.852 l 32.126 -28.069 c -4.493 -1.111 -8.614 -3.425 -11.969 -6.781 c -3.357 -3.356 -5.67 -7.477 -6.781 -11.969 l -28.07 32.125 L 29.006 71.852 z" style="stroke: none; stroke-width: 1; stroke-dasharray: none; stroke-linecap: butt; stroke-linejoin: miter; stroke-miterlimit: 10; fill: rgb(255,255,255); fill-rule: nonzero; opacity: 1;" transform=" matrix(1 0 0 1 0 0) " stroke-linecap="round" />
</g>
</svg>